<svg width="979" height="239" viewBox="0 0 979 239" fill="none" xmlns="http://www.w3.org/2000/svg">
<path d="M0 236.657V92.0026H101.71V123.646H39.2715V148.508H95.4947V180.152H39.2715V236.657H0Z" fill="black"/>
<path d="M155.426 110.687V236.657H116.155V110.687L136.177 92.0026L155.426 110.687Z" fill="black"/>
<path d="M174.038 236.657V92.0026H236.477C247.213 92.0026 256.607 93.9568 264.659 97.8651C272.711 101.773 278.974 107.4 283.447 114.746C287.92 122.092 290.157 130.897 290.157 141.163C290.157 151.522 287.85 160.257 283.235 167.367C278.667 174.477 272.24 179.845 263.952 183.471C255.712 187.097 246.082 188.91 235.064 188.91H197.77V158.397H227.153C231.768 158.397 235.7 157.832 238.949 156.702C242.245 155.524 244.764 153.664 246.506 151.122C248.296 148.579 249.19 145.259 249.19 141.163C249.19 137.019 248.296 133.652 246.506 131.062C244.764 128.425 242.245 126.495 238.949 125.27C235.7 123.999 231.768 123.363 227.153 123.363H213.309V236.657H174.038ZM258.796 170.263L294.96 236.657H252.298L216.982 170.263H258.796Z" fill="black"/>
<path d="M662.247 137.207C661.87 132.498 660.105 128.826 656.95 126.189C653.842 123.552 649.11 122.233 642.753 122.233C638.703 122.233 635.383 122.728 632.794 123.716C630.251 124.658 628.367 125.953 627.143 127.601C625.919 129.249 625.283 131.133 625.236 133.252C625.142 134.994 625.448 136.571 626.154 137.984C626.908 139.35 628.085 140.598 629.686 141.728C631.287 142.811 633.335 143.8 635.831 144.694C638.326 145.589 641.293 146.389 644.73 147.096L656.597 149.638C664.602 151.334 671.453 153.57 677.151 156.349C682.848 159.127 687.51 162.399 691.136 166.166C694.762 169.886 697.422 174.077 699.117 178.739C700.859 183.401 701.754 188.486 701.801 193.995C701.754 203.507 699.376 211.559 694.667 218.152C689.959 224.744 683.225 229.759 674.467 233.196C665.755 236.634 655.278 238.352 643.035 238.352C630.463 238.352 619.491 236.492 610.121 232.773C600.797 229.053 593.546 223.331 588.366 215.609C583.233 207.839 580.644 197.904 580.596 185.802H617.89C618.126 190.228 619.232 193.948 621.21 196.962C623.188 199.976 625.966 202.259 629.544 203.813C633.17 205.367 637.479 206.144 642.47 206.144C646.661 206.144 650.169 205.626 652.994 204.59C655.82 203.554 657.962 202.118 659.422 200.282C660.882 198.445 661.635 196.35 661.682 193.995C661.635 191.782 660.905 189.852 659.493 188.204C658.127 186.508 655.867 185.002 652.712 183.683C649.557 182.318 645.295 181.046 639.927 179.869L625.518 176.761C612.711 173.983 602.61 169.345 595.217 162.847C587.872 156.301 584.222 147.378 584.269 136.077C584.222 126.895 586.671 118.866 591.615 111.992C596.606 105.07 603.505 99.678 612.31 95.8167C621.163 91.9555 631.31 90.0249 642.753 90.0249C654.431 90.0249 664.531 91.9791 673.054 95.8874C681.577 99.7957 688.146 105.305 692.76 112.415C697.422 119.479 699.776 127.742 699.823 137.207H662.247Z" fill="black"/>
<path d="M712.784 123.646V92.0026H838.51V123.646H795V236.657H756.294V123.646H712.784Z" fill="black"/>
<path d="M938.896 92.0026H978.167V184.672C978.167 195.691 975.53 205.226 970.256 213.278C965.03 221.283 957.731 227.475 948.36 231.854C938.99 236.186 928.113 238.352 915.728 238.352C903.25 238.352 892.326 236.186 882.955 231.854C873.585 227.475 866.286 221.283 861.059 213.278C855.879 205.226 853.29 195.691 853.29 184.672V92.0026H892.561V181.282C892.561 185.755 893.55 189.758 895.528 193.289C897.505 196.774 900.236 199.505 903.721 201.482C907.253 203.46 911.255 204.449 915.728 204.449C920.249 204.449 924.251 203.46 927.736 201.482C931.22 199.505 933.951 196.774 935.929 193.289C937.907 189.758 938.896 185.755 938.896 181.282V92.0026Z" fill="black"/>
<path d="M136.662 4.02979C144.99 16.3241 133.49 29.0566 125.717 14.1687C130.41 39.0143 114.503 42.7703 112.864 27.0212C100.217 38.207 102.658 52.3255 109.35 63.2574L117.233 58.7278C115.169 55.5783 114.138 51.4201 114.6 47.3424C119.017 54.1219 132.973 49.0769 131.3 37.0366C133.138 42.5514 137.799 42.0177 142.61 33.5119C136.067 51.1728 146.362 62.6285 153.254 57.3417C153.507 59.3998 152.747 61.7531 151.433 63.8862L159.508 66.0406C168.986 57.873 173.214 42.662 158.853 35.8601C165.572 46.2586 156.601 53.9247 148.413 42.9901C141.785 30.5875 162.575 23.4932 136.662 4.02979H136.662ZM118.152 8.27428C107.125 13.8336 115.634 18.6783 115.739 24.1519C123.326 17.4574 115.099 14.9519 118.152 8.27428ZM130.956 54.5421L101.151 71.6769C101.617 74.8389 102.695 77.5946 104.386 80.016L120.204 72.4398L106.674 82.7347C107.257 83.3159 107.884 83.8729 108.555 84.4111L121.402 77.0287C121.398 76.9018 121.392 76.7751 121.392 76.647C121.392 70.2474 126.635 65.0308 133.051 65.0308C134.804 65.0289 136.534 65.4237 138.113 66.1857C137.713 63.8793 136.861 61.5255 135.582 59.4319L119.258 66.3308L133.438 56.6219C132.692 55.8396 131.862 55.1364 130.956 54.5425L130.956 54.5421ZM141.079 64.45C141.355 65.679 141.526 66.9113 141.589 68.1144L141.627 68.7915C143.54 70.8619 144.711 73.6212 144.711 76.6468C144.711 77.95 144.489 79.2437 144.055 80.4725L159.761 84.6637C160.559 83.5758 161.238 82.4684 161.797 81.3324L150.938 77.0879L162.995 78.2646C163.144 77.7577 163.272 77.2462 163.377 76.7278L146.688 70.8441L163.737 73.504C163.764 72.5115 163.719 71.4974 163.597 70.4572L141.079 64.4505V64.45ZM133.051 68.2433C128.364 68.2433 124.604 71.9916 124.604 76.6468C124.604 81.3026 128.364 85.0506 133.051 85.0506C137.739 85.0506 141.498 81.3026 141.498 76.647C141.498 71.9918 137.739 68.2437 133.051 68.2437L133.051 68.2433ZM132.202 70.2688C139.729 70.2691 142.249 82.5788 132.202 82.5788C136.779 78.6047 137.328 74.5169 132.202 70.2693V70.2688ZM132.234 71.9615C128.518 75.042 128.915 78.0098 132.234 80.892C124.948 80.892 126.776 71.9615 132.234 71.9615Z" fill="url(#paint0_linear_53_178)"/>
<path d="M559.984 227.652H555.968V181.085C555.968 179.712 555.545 178.396 554.791 177.426C554.038 176.456 553.017 175.91 551.952 175.91C550.886 175.91 549.865 176.456 549.112 177.426C548.359 178.396 547.935 179.712 547.935 181.085V183.413C542.072 177.307 536.249 170.84 530.586 164.113C498.157 125.796 471.724 79.8325 452.713 28.7065L443.195 3.14629C442.886 2.21293 442.371 1.41706 441.714 0.857654C441.058 0.298249 440.287 0 439.5 0C438.713 0 437.942 0.298249 437.286 0.857654C436.629 1.41706 436.114 2.21293 435.805 3.14629L426.287 28.7065C413.796 62.1173 398.133 93.4012 379.66 121.841L375.965 127.429C372.27 132.965 368.415 138.346 364.519 143.624C359.164 150.523 353.809 157.301 348.454 163.958C342.751 170.736 336.928 177.307 331.065 183.413V181.085C331.065 179.712 330.641 178.396 329.888 177.426C329.135 176.456 328.114 175.91 327.048 175.91C325.983 175.91 324.962 176.456 324.209 177.426C323.455 178.396 323.032 179.712 323.032 181.085V227.652H319.016C317.951 227.652 316.929 228.197 316.176 229.167C315.423 230.138 315 231.454 315 232.826C315 234.198 315.423 235.514 316.176 236.485C316.929 237.455 317.951 238 319.016 238H559.984C561.049 238 562.071 237.455 562.824 236.485C563.577 235.514 564 234.198 564 232.826C564 231.454 563.577 230.138 562.824 229.167C562.071 228.197 561.049 227.652 559.984 227.652ZM547.935 227.652H531.871V179.532C537.132 185.534 542.514 191.433 547.935 196.607V227.652ZM331.065 196.607C336.486 191.433 341.868 185.586 347.129 179.584V227.652H331.065V196.607ZM482.392 227.652H393.395L379.539 182.999C379.29 182.132 379.225 181.195 379.353 180.285C379.48 179.375 379.794 178.525 380.262 177.825L435.484 96.3841L436.167 95.401C436.373 95.0496 436.601 94.7207 436.849 94.4179H437.13H437.412L437.974 94.1592H438.375C438.839 94.0305 439.318 94.0305 439.781 94.1592C440.033 94.2159 440.276 94.3205 440.504 94.4697C440.717 94.5761 440.919 94.715 441.106 94.8836C441.237 94.9402 441.349 95.049 441.428 95.194L441.91 95.7632L442.231 96.2806L442.874 97.1602L498.738 177.67C499.206 178.37 499.52 179.22 499.647 180.13C499.775 181.04 499.71 181.977 499.461 182.844L485.605 227.652H482.392Z" fill="url(#paint1_linear_53_178)"/>
<path d="M468.727 218.75L480.052 182.221L440.333 123.701L468.727 218.75Z" fill="url(#paint2_linear_53_178)"/>
<path d="M410.436 218.489L438.83 123.44L399.11 181.96L410.436 218.489Z" fill="url(#paint3_linear_53_178)"/>
<defs>
<linearGradient id="paint0_linear_53_178" x1="134.66" y1="4.02979" x2="134.66" y2="85.0506" gradientUnits="userSpaceOnUse">
<stop offset="0.3" stop-color="#F8B200"/>
<stop offset="0.92" stop-color="#FF0000"/>
</linearGradient>
<linearGradient id="paint1_linear_53_178" x1="439.5" y1="0" x2="439.5" y2="238" gradientUnits="userSpaceOnUse">
<stop offset="0.334" stop-color="#41FBF0"/>
<stop offset="1" stop-color="#08A6FF"/>
</linearGradient>
<linearGradient id="paint2_linear_53_178" x1="460.192" y1="123.701" x2="460.192" y2="218.75" gradientUnits="userSpaceOnUse">
<stop offset="0.334" stop-color="#41FBF0"/>
<stop offset="1" stop-color="#08A6FF"/>
</linearGradient>
<linearGradient id="paint3_linear_53_178" x1="418.97" y1="123.44" x2="418.97" y2="218.489" gradientUnits="userSpaceOnUse">
<stop offset="0.334" stop-color="#41FBF0"/>
<stop offset="1" stop-color="#08A6FF"/>
</linearGradient>
</defs>
</svg>
