<svg width="1111" height="1111" viewBox="0 0 1111 1111" fill="none" xmlns="http://www.w3.org/2000/svg">
<rect width="1111" height="1111" rx="540" fill="url(#paint0_linear_83_2)" fill-opacity="0.1"/>
<path d="M1031.44 687.474C1049 619 1044.59 577.169 1042.5 504.5L1009.5 485.5L964.5 439.5L798 213.5H775L737 250.5L633.5 100L617.5 97L560.349 226.444L534.363 219.55L481.862 293.795L417.693 252.96L257.001 439.5L244 486.5L221.5 501.5H182.5L159.5 482.5L162 510L104 512L99.0002 622L82.9999 625.5L67.0002 616C67.0002 616 62.0002 622.5 82.4349 689.356C104.025 755.95 139.399 817.251 186.255 869.266C233.11 921.28 290.396 962.843 354.382 991.246C418.368 1019.65 487.619 1034.26 557.626 1034.12C627.632 1033.98 696.825 1019.1 760.697 990.44C824.57 961.783 881.691 919.994 928.339 867.794C974.988 815.594 1010.12 754.153 1031.44 687.474Z" fill="url(#paint1_linear_83_2)"/>
<path d="M627.26 616.643H623.108V579.276C623.108 578.175 622.67 577.119 621.892 576.341C621.113 575.562 620.057 575.125 618.956 575.125C617.855 575.125 616.799 575.562 616.02 576.341C615.242 577.119 614.804 578.175 614.804 579.276V581.145C608.742 576.246 602.722 571.056 596.868 565.658C563.344 534.911 536.017 498.029 516.364 457.005L506.524 436.494C506.205 435.745 505.673 435.107 504.994 434.658C504.315 434.209 503.518 433.97 502.704 433.97C501.89 433.97 501.094 434.209 500.415 434.658C499.736 435.107 499.204 435.745 498.885 436.494L489.045 457.005C476.131 483.814 459.94 508.917 440.842 531.738L437.022 536.222C433.202 540.664 429.217 544.982 425.189 549.217C419.654 554.753 414.118 560.192 408.582 565.534C402.686 570.973 396.666 576.246 390.604 581.145V579.276C390.604 578.175 390.167 577.119 389.388 576.341C388.61 575.562 387.554 575.125 386.453 575.125C385.351 575.125 384.295 575.562 383.517 576.341C382.738 577.119 382.301 578.175 382.301 579.276V616.643H378.149C377.048 616.643 375.992 617.08 375.213 617.859C374.434 618.638 373.997 619.694 373.997 620.795C373.997 621.896 374.434 622.952 375.213 623.731C375.992 624.509 377.048 624.947 378.149 624.947H627.26C628.361 624.947 629.417 624.509 630.196 623.731C630.974 622.952 631.412 621.896 631.412 620.795C631.412 619.694 630.974 618.638 630.196 617.859C629.417 617.08 628.361 616.643 627.26 616.643ZM614.804 616.643H598.197V578.031C603.636 582.847 609.199 587.58 614.804 591.732V616.643ZM390.604 591.732C396.209 587.58 401.773 582.889 407.212 578.072V616.643H390.604V591.732ZM547.046 616.643H455.041L440.717 580.813C440.46 580.117 440.393 579.365 440.524 578.635C440.656 577.905 440.98 577.223 441.465 576.661L498.552 511.311L499.258 510.522C499.471 510.24 499.707 509.976 499.964 509.733H500.255H500.545L501.127 509.525H501.542C502.021 509.422 502.516 509.422 502.995 509.525C503.255 509.571 503.507 509.655 503.742 509.774C503.962 509.86 504.172 509.971 504.365 510.107C504.5 510.152 504.616 510.239 504.697 510.356L505.195 510.812L505.528 511.228L506.192 511.933L563.944 576.536C564.428 577.098 564.753 577.78 564.884 578.51C565.016 579.24 564.949 579.992 564.691 580.688L550.368 616.643H547.046Z" fill="black"/>
<path d="M532.919 609.5L544.627 580.188L503.565 533.23L532.919 609.5Z" fill="black"/>
<path d="M473.708 609.269L503.062 533L462 579.957L473.708 609.269Z" fill="black"/>
<path d="M78.3232 626.97C71.6958 626.97 66.3232 621.598 66.3232 614.97V494.316C66.3232 487.688 71.6958 482.316 78.3232 482.316H156.034C162.661 482.316 168.034 487.688 168.034 494.316V501.959C168.034 508.586 162.661 513.959 156.034 513.959H105.595V538.821H161.818V558.465C161.818 565.092 156.445 570.465 149.818 570.465H105.595V614.97C105.595 621.598 100.222 626.97 93.5947 626.97H78.3232Z" fill="black"/>
<path d="M221.749 501V614.97C221.749 621.598 216.377 626.97 209.749 626.97H194.478C187.85 626.97 182.478 621.598 182.478 614.97V501L194.15 490.108C198.827 485.743 206.105 485.815 210.695 490.27L221.749 501Z" fill="black"/>
<path d="M240.361 626.97V494.316C240.361 487.688 245.733 482.316 252.361 482.316H302.8C313.536 482.316 322.93 484.27 330.982 488.178C339.034 492.086 345.297 497.713 349.77 505.059C354.244 512.405 356.48 521.21 356.48 531.476C356.48 541.835 354.173 550.57 349.558 557.68C344.991 564.79 338.563 570.158 330.276 573.784C322.035 577.41 312.406 579.223 301.387 579.223H264.093V548.71H293.476C298.091 548.71 302.023 548.145 305.272 547.015C308.568 545.837 311.087 543.977 312.829 541.435C314.619 538.892 315.514 535.572 315.514 531.476C315.514 527.332 314.619 523.965 312.829 521.375C311.087 518.738 308.568 516.808 305.272 515.583C302.023 514.312 298.091 513.676 293.476 513.676H279.632V614.97C279.632 621.598 274.26 626.97 267.632 626.97H240.361ZM325.12 560.576L361.283 626.97H325.83C321.394 626.97 317.319 624.522 315.236 620.606L283.305 560.576H325.12Z" fill="black"/>
<path d="M739.649 527.52C733.392 527.52 728.734 521.999 724.369 517.517C724.025 517.163 723.659 516.824 723.273 516.502C720.165 513.865 715.433 512.546 709.076 512.546C705.026 512.546 701.707 513.041 699.117 514.029C696.574 514.971 694.691 516.266 693.466 517.914C692.242 519.562 691.606 521.446 691.559 523.565C691.465 525.307 691.771 526.884 692.477 528.297C693.231 529.663 694.408 530.911 696.009 532.041C697.61 533.124 699.658 534.113 702.154 535.007C704.65 535.902 707.616 536.702 711.054 537.409L722.92 539.951C730.925 541.647 737.776 543.883 743.474 546.661C749.171 549.44 753.833 552.712 757.459 556.479C761.085 560.199 763.745 564.39 765.44 569.052C767.183 573.714 768.077 578.799 768.124 584.308C768.077 593.82 765.699 601.872 760.991 608.465C756.282 615.057 749.548 620.072 740.79 623.509C732.078 626.947 721.601 628.665 709.359 628.665C696.786 628.665 685.814 626.805 676.444 623.085C667.12 619.366 659.869 613.644 654.689 605.922C651.366 600.892 649.109 594.953 647.918 588.107C646.778 581.56 652.321 576.115 658.966 576.115H672.835C679.214 576.115 683.939 581.524 687.316 586.936C687.387 587.05 687.46 587.163 687.533 587.275C689.511 590.289 692.289 592.572 695.868 594.126C699.494 595.68 703.802 596.457 708.793 596.457C712.984 596.457 716.492 595.939 719.318 594.903C722.143 593.867 724.285 592.431 725.745 590.595C727.205 588.758 727.958 586.663 728.005 584.308C727.958 582.095 727.228 580.165 725.816 578.517C724.45 576.821 722.19 575.315 719.035 573.996C715.88 572.631 711.619 571.359 706.251 570.182L691.842 567.074C679.034 564.296 668.933 559.658 661.541 553.16C654.195 546.614 650.545 537.691 650.593 526.39C650.545 517.208 652.994 509.179 657.938 502.305C662.93 495.383 669.828 489.991 678.633 486.13C687.486 482.269 697.634 480.338 709.076 480.338C720.754 480.338 730.854 482.292 739.377 486.2C747.9 490.109 754.469 495.618 759.084 502.728C761.667 506.642 763.541 510.924 764.707 515.575C766.325 522.026 760.738 527.52 754.087 527.52H739.649Z" fill="black"/>
<path d="M791.108 513.959C784.48 513.959 779.108 508.586 779.108 501.959V494.316C779.108 487.688 784.48 482.316 791.108 482.316H892.833C899.46 482.316 904.833 487.688 904.833 494.316V501.959C904.833 508.586 899.46 513.959 892.833 513.959H861.324V614.97C861.324 621.598 855.951 626.97 849.324 626.97H834.617C827.99 626.97 822.617 621.598 822.617 614.97V513.959H791.108Z" fill="black"/>
<path d="M1005.22 494.316C1005.22 487.688 1010.59 482.316 1017.22 482.316H1032.49C1039.12 482.316 1044.49 487.688 1044.49 494.316V574.985C1044.49 586.004 1041.85 595.539 1036.58 603.591C1031.35 611.596 1024.05 617.788 1014.68 622.167C1005.31 626.499 994.436 628.665 982.052 628.665C969.573 628.665 958.649 626.499 949.278 622.167C939.908 617.788 932.609 611.596 927.382 603.591C922.203 595.539 919.613 586.004 919.613 574.985V494.316C919.613 487.688 924.985 482.316 931.613 482.316H946.884C953.512 482.316 958.884 487.688 958.884 494.316V571.595C958.884 576.068 959.873 580.071 961.851 583.602C963.829 587.087 966.56 589.818 970.044 591.795C973.576 593.773 977.578 594.762 982.052 594.762C986.572 594.762 990.575 593.773 994.059 591.795C997.544 589.818 1000.27 587.087 1002.25 583.602C1004.23 580.071 1005.22 576.068 1005.22 571.595V494.316Z" fill="black"/>
<path d="M204.859 381C214.677 395.416 201.12 410.345 191.958 392.888C197.49 422.021 178.739 426.425 176.807 407.958C161.9 421.074 164.777 437.629 172.665 450.447L181.957 445.136C179.524 441.443 178.309 436.567 178.854 431.786C184.06 439.735 200.511 433.819 198.539 419.702C200.706 426.168 206.2 425.542 211.871 415.569C204.158 436.277 216.294 449.709 224.418 443.51C224.716 445.923 223.82 448.683 222.271 451.184L231.79 453.71C242.962 444.133 247.946 426.298 231.018 418.322C238.938 430.515 228.363 439.504 218.711 426.682C210.899 412.14 235.405 403.822 204.86 381H204.859ZM183.04 385.977C170.043 392.495 180.072 398.176 180.196 404.594C189.139 396.744 179.442 393.807 183.04 385.977ZM198.133 440.228L163 460.319C163.549 464.026 164.82 467.258 166.813 470.097L185.459 461.213L169.511 473.285C170.198 473.966 170.936 474.619 171.728 475.25L186.871 466.594C186.867 466.445 186.859 466.297 186.859 466.147C186.859 458.643 193.04 452.526 200.603 452.526C202.669 452.524 204.709 452.987 206.57 453.88C206.099 451.176 205.094 448.416 203.586 445.961L184.344 454.05L201.059 442.666C200.18 441.749 199.201 440.924 198.133 440.228L198.133 440.228ZM210.066 451.845C210.392 453.286 210.593 454.731 210.667 456.142L210.712 456.936C212.968 459.363 214.347 462.599 214.347 466.146C214.347 467.674 214.086 469.191 213.574 470.632L232.088 475.546C233.029 474.271 233.829 472.972 234.488 471.64L221.688 466.663L235.901 468.043C236.076 467.449 236.227 466.849 236.35 466.241L216.678 459.342L236.775 462.461C236.806 461.298 236.754 460.108 236.61 458.889L210.066 451.846V451.845ZM200.603 456.293C195.078 456.293 190.646 460.688 190.646 466.146C190.646 471.605 195.078 476 200.603 476C206.129 476 210.56 471.605 210.56 466.147C210.56 460.688 206.129 456.293 200.603 456.293L200.603 456.293ZM199.602 458.668C208.475 458.668 211.446 473.102 199.602 473.102C204.998 468.442 205.644 463.649 199.602 458.668V458.668ZM199.64 460.653C195.259 464.265 195.728 467.744 199.64 471.124C191.052 471.124 193.206 460.653 199.64 460.653Z" fill="url(#paint2_linear_83_2)"/>
<path d="M803.5 335.5L777.5 237.161L675 387L706 315L728.5 265.219L623.746 110.804L571.816 249.973L534.466 241.687L477.016 320.225L420.336 285.581L452.746 337.625L459.596 386.304L546.746 285.581L595.246 378.629L631.486 265.219L620.246 85.7502H640.246L655.746 270.822L600.246 436.536L541.746 320.225L442.746 432.393L431.746 344.772L400.5 297L356 344.772L305 398.5L256.5 440L406.386 237.161L469.746 278.589L523.746 199.875L551.966 207.643C551.966 207.643 622.986 44.2696 623.746 44.0003C624.516 43.731 744 237.161 744 237.161L785.5 184L938.5 389.5L986.5 462L912.5 387L803.5 255L828.5 344.772L707.5 457.5L743 406.5L767.5 377L803.5 335.5Z" fill="black"/>
<path d="M418 166.651V166.651C423.267 157.219 436.851 157.255 442.068 166.714L449.825 180.777C450.132 181.333 450.92 181.364 451.269 180.834L462.082 164.443C467.488 156.249 479.879 157.526 483.5 166.651V166.651" stroke="black" stroke-width="10" stroke-linecap="round"/>
<path d="M223 306.651V306.651C228.267 297.219 241.851 297.255 247.068 306.714L254.825 320.777C255.132 321.333 255.92 321.364 256.269 320.834L267.082 304.443C272.488 296.249 284.879 297.526 288.5 306.651V306.651" stroke="black" stroke-width="10" stroke-linecap="round"/>
<path d="M386 1004C454.635 981.415 578.229 896.229 535.5 853.5C501 819 457 837 406 797C355 757 395 669 486.5 623.5L516.5 621.5C465.5 648.5 370.908 754.178 494 767.5C609.5 780 785 821.5 634 1028C634 1028 603 1032 579.5 1033C552.128 1034.16 518.507 1032.46 497.5 1030.5C448.493 1025.92 386 1004 386 1004Z" fill="black"/>
<path d="M516.5 621.5C465.5 648.5 370.908 754.178 494 767.5C609.5 780 785 821.5 634 1028C634 1028 603 1032 579.5 1033C552.128 1034.16 518.507 1032.46 497.5 1030.5C448.493 1025.92 386 1004 386 1004C454.635 981.415 578.229 896.229 535.5 853.5C501 819 457 837 406 797C355 757 395 669 486.5 623.5M516.5 621.5C516.5 621.5 494.5 623.5 486.5 623.5M516.5 621.5L486.5 623.5" stroke="black"/>
<path d="M505.5 809.5C643.68 840.557 601.5 904 588.5 935.5H615.5C649.5 857.5 619.615 814.767 510 795C360.139 767.976 424.661 689.287 470.592 646.24C471.837 645.074 471.679 643.076 470.282 642.097C468.941 641.159 467.137 641.248 465.91 642.331C405.29 695.832 353.741 775.391 505.5 809.5Z" fill="white" stroke="black"/>
<path d="M518.321 925.612C518.161 925.612 517.968 925.664 517.8 925.692C518.821 930.172 519.008 934.331 518.833 938.296C522.853 937.966 526.809 937.691 530.703 937.443C527.023 933.863 525.275 928.112 520.308 926.003C519.725 925.802 519.106 925.628 518.585 925.612H518.321ZM566.427 941.298C546.802 941.353 527.422 942.482 508.864 944.135C507.745 944.327 504.255 944.741 504.415 946.31C504.461 946.834 505.267 948.1 508.478 947.99C547.936 946.558 580.195 945.099 619.199 947.99C620.855 947.935 624.044 948.348 625.148 947.054C623.891 945.154 620.825 944.383 618.647 944.107C601.292 942.042 583.752 941.243 566.427 941.298ZM584.334 951.377V956.803H589.854V951.515C588.014 951.46 586.174 951.405 584.334 951.377ZM545.698 951.68L540.178 951.846V956.803H545.698V951.68ZM514.718 961.76C510.271 961.76 505.85 962.806 502.759 964.651C499.665 966.496 497.853 968.92 497.853 972.5V972.527L497.252 992.053H638.303V990.51C635.881 983.929 633.458 976.466 630.576 970.765C629.104 967.873 627.509 965.477 625.915 963.935C624.351 962.393 622.971 961.76 621.438 961.76H514.718ZM507.975 968.094H532.512V974.428H502.98L503.068 972.5C503.068 970.517 505.304 968.094 507.975 968.094ZM538.032 968.094H594.454V985.719H538.032V968.094ZM599.973 968.094H617.758C626.344 968.094 627.939 978.696 630.024 985.719H599.973V968.094ZM502.75 979.385H532.512V985.719H502.455L502.75 979.385ZM497.098 997.01L496.703 1009.68H515.889C518.149 1008.47 520.798 1007.75 523.62 1007.75C530.856 1007.75 536.897 1012.38 538.338 1018.49H589.486C590.805 1012.24 596.937 1007.47 604.266 1007.47C607.302 1007.47 610.123 1008.3 612.484 1009.68H638.303V997.01H497.098ZM604.266 1012.43C598.992 1012.43 594.76 1016.23 594.76 1020.97C594.76 1025.71 598.992 1029.51 604.266 1029.51C609.54 1029.51 613.772 1025.71 613.772 1020.97C613.772 1016.23 609.54 1012.43 604.266 1012.43ZM523.62 1012.71C518.327 1012.71 514.104 1016.51 514.104 1021.24C514.104 1025.98 518.327 1029.78 523.62 1029.78C528.894 1029.78 533.125 1025.98 533.125 1021.24C533.125 1016.51 528.894 1012.71 523.62 1012.71ZM497.39 1014.63C497.77 1015.27 498.279 1015.9 498.898 1016.45C500.321 1017.72 502.213 1018.49 503.887 1018.49H508.901C509.22 1017.11 509.775 1015.82 510.523 1014.63H497.39ZM617.513 1014.63C618.249 1015.82 618.739 1017.11 619.046 1018.49H625.884L638.303 1014.77V1014.63H617.513Z" fill="white"/>
<defs>
<linearGradient id="paint0_linear_83_2" x1="555.5" y1="0" x2="555.5" y2="1111" gradientUnits="userSpaceOnUse">
<stop stop-color="#41FBF0"/>
<stop offset="1" stop-color="#08A6FF"/>
</linearGradient>
<linearGradient id="paint1_linear_83_2" x1="555.514" y1="97" x2="555.514" y2="1034.12" gradientUnits="userSpaceOnUse">
<stop offset="0.334" stop-color="#41FBF0"/>
<stop offset="1" stop-color="#08A6FF"/>
</linearGradient>
<linearGradient id="paint2_linear_83_2" x1="202.5" y1="381" x2="202.5" y2="476" gradientUnits="userSpaceOnUse">
<stop offset="0.3" stop-color="#F8B200"/>
<stop offset="0.92" stop-color="#FF0000"/>
</linearGradient>
</defs>
</svg>
