<svg width="679" height="116" viewBox="0 0 679 116" fill="none" xmlns="http://www.w3.org/2000/svg">
<rect width="679" height="116" rx="6" fill="white"/>
<path d="M40.4375 26.9531C41.5938 25.8594 43.4219 25.3125 45.9219 25.3125C48.4531 25.3125 50.4688 25.5938 51.9688 26.1562C54.7812 27.1562 56.5156 29.8906 57.1719 34.3594C57.4844 36.6406 58.4531 41.2656 60.0781 48.2344C61.7344 55.2031 63.125 60.3281 64.25 63.6094C65.4062 66.8594 66.7656 68.4844 68.3281 68.4844C69.8906 68.4844 71.625 65.2969 73.5312 58.9219C75.4688 52.5469 76.4375 46.8281 76.4375 41.7656C76.4375 40.1406 76.2656 38.6094 75.9219 37.1719L75.3594 35.25L74.8906 33.4219C74.8906 31.1406 75.7656 29.4062 77.5156 28.2188C79.2969 27 81.4062 26.3906 83.8438 26.3906C86.3125 26.3906 88.4844 27.125 90.3594 28.5938C92.2656 30.0313 93.2188 31.6719 93.2188 33.5156L92.9844 35.3438L92.6562 37.1719C92.6562 41.9219 95.1406 51.0156 100.109 64.4531C101.047 67.0156 102.094 68.2969 103.25 68.2969C104.438 68.2969 105.344 67.7969 105.969 66.7969C106.594 65.7656 107.938 61.5469 110 54.1406C112.094 46.7344 113.297 40.7969 113.609 36.3281C113.953 31.8594 114.172 29.4688 114.266 29.1562C115.047 26.625 117.5 25.3594 121.625 25.3594C123.688 25.3594 125.141 25.7344 125.984 26.4844C126.828 27.2031 127.25 28.0937 127.25 29.1562C127.25 30.1875 126.297 32.2031 124.391 35.2031C122.484 38.2031 121.031 41.1719 120.031 44.1094L117.5 51.8906C117 53.3906 116.453 55.1406 115.859 57.1406L114.266 62.3438C110.641 73.7188 108.266 80.4375 107.141 82.5C105.328 85.7812 103.359 87.4219 101.234 87.4219C98.8281 87.4219 96.7188 85.3438 94.9062 81.1875C94 79.0938 92.2188 73.8281 89.5625 65.3906C86.9375 56.9219 85.3281 51.9375 84.7344 50.4375L83.8438 48.5156C83.125 48.5156 81.1562 53.3281 77.9375 62.9531C74.75 72.5469 72.5469 78.6719 71.3281 81.3281C69.4219 85.4844 67.3125 87.5625 65 87.5625C62.6875 87.5625 60.6875 85.875 59 82.5C58.25 80.9688 56.2031 74.7188 52.8594 63.75C49.5469 52.7812 47.4062 45.9844 46.4375 43.3594C45.5 40.7344 44.1094 37.8594 42.2656 34.7344C40.4531 31.6094 39.5469 29.6719 39.5469 28.9219C39.5469 28.1719 39.8438 27.5156 40.4375 26.9531ZM202.156 88.2656C202.156 89.5781 199.906 90.2344 195.406 90.2344H193.156L190.859 90.1875C186.672 90.1875 183.781 90.0312 182.188 89.7188C180.594 89.4062 179.797 88.7344 179.797 87.7031C179.797 87.4219 180.312 86.6719 181.344 85.4531C182.406 84.2344 183.203 82.6094 183.734 80.5781C184.266 78.5469 184.531 74.9688 184.531 69.8438C184.531 64.7188 183.969 61.6562 182.844 60.6562C181.75 59.625 177.297 59.1094 169.484 59.1094C161.703 59.1094 157.172 59.7188 155.891 60.9375C155.047 61.7188 154.625 64.8281 154.625 70.2656C154.625 75.7031 154.812 79.2656 155.188 80.9531C155.594 82.6406 156.125 83.9531 156.781 84.8906L157.719 85.9688C158.688 87.0625 159.172 87.7031 159.172 87.8906C159.172 89.0156 158.188 89.6875 156.219 89.9062C155.344 90 151.828 90.0469 145.672 90.0469C139.547 90.0469 136.484 89.3438 136.484 87.9375C136.484 87.1875 137.688 86.0156 140.094 84.4219C141.688 83.3594 142.641 81.9375 142.953 80.1562C143.266 78.3438 143.422 70.8125 143.422 57.5625C143.422 44.3125 143.188 36.6406 142.719 34.5469C142.25 32.4531 141.078 30.875 139.203 29.8125C137.359 28.7188 136.438 27.7187 136.438 26.8125C136.438 25.5938 140.344 24.9844 148.156 24.9844H152.703C157.078 24.9844 159.266 25.7188 159.266 27.1875C159.266 27.3125 158.734 28.0469 157.672 29.3906C156.609 30.7031 155.859 32.3281 155.422 34.2656C155.016 36.1719 154.812 39.3125 154.812 43.6875C154.812 48.0625 155.328 50.7344 156.359 51.7031C157.391 52.6719 161.766 53.1562 169.484 53.1562C177.234 53.1562 181.656 52.625 182.75 51.5625C183.531 50.8125 183.922 48.0469 183.922 43.2656C183.922 38.4531 183.75 35.3906 183.406 34.0781C183.094 32.7656 182.594 31.6562 181.906 30.75L180.922 29.6719C179.953 28.6406 179.469 27.9531 179.469 27.6094C179.469 26.4219 180.328 25.7188 182.047 25.5C183.766 25.2812 187.594 25.1719 193.531 25.1719C199.469 25.1719 202.438 25.8125 202.438 27.0938C202.438 28.0625 201.875 28.9375 200.75 29.7188C198.219 31.4375 196.844 32.5469 196.625 33.0469C196.094 34.2656 195.828 40.1719 195.828 50.7656L195.5 73.9219C195.5 78.2656 195.734 81.0625 196.203 82.3125C196.672 83.5625 197.453 84.5156 198.547 85.1719C200.953 86.6406 202.156 87.6719 202.156 88.2656ZM247.203 62.2031V61.9219C247.203 58.9844 244.688 51.6406 239.656 39.8906C238.781 37.8594 238.328 36.8438 238.297 36.8438L236.938 39.9844C231.75 52.0781 229.156 59.4219 229.156 62.0156C229.156 62.4531 229.422 62.6875 229.953 62.7188C230.516 62.75 230.938 62.7656 231.219 62.7656L234.875 62.8594H238.203L238.531 62.8125C244.312 62.8125 247.203 62.6094 247.203 62.2031ZM208.109 87.1875C208.109 86.4062 209 85.5 210.781 84.4688C212.562 83.4375 213.875 82.125 214.719 80.5312C215.562 78.9375 216.75 76.0625 218.281 71.9062C219.812 67.7188 221.891 62.4531 224.516 56.1094C227.172 49.7656 229.266 44.0781 230.797 39.0469C232.359 33.9844 233.422 30.7813 233.984 29.4375C235.266 26.375 237.078 24.8438 239.422 24.8438H240.734C241.328 24.8438 242.062 25.1719 242.938 25.8281C244.719 27.1719 246.578 30.0469 248.516 34.4531C249.172 35.9531 250.156 38.5312 251.469 42.1875C252.781 45.8125 255.406 52.9219 259.344 63.5156C263.281 74.1094 265.484 79.875 265.953 80.8125C266.734 82.4375 268.062 83.75 269.938 84.75C271.812 85.7188 272.75 86.5 272.75 87.0938C272.75 88.4062 271.969 89.2188 270.406 89.5312C269.344 89.75 266.656 89.8594 262.344 89.8594L259.625 89.9062C253.844 89.9062 250.953 89.125 250.953 87.5625C250.953 87.2812 251.312 86.6094 252.031 85.5469C252.781 84.4844 253.156 83.1406 253.156 81.5156C253.156 79.8906 252.562 77.5625 251.375 74.5312C250.219 71.5 249.234 69.625 248.422 68.9062C247.641 68.1875 244.25 67.8281 238.25 67.8281C232.25 67.8281 228.75 68.1562 227.75 68.8125C226.75 69.4688 225.672 71.2344 224.516 74.1094C223.359 76.9844 222.781 79.3281 222.781 81.1406C222.781 82.9219 223.328 84.5 224.422 85.875C225.547 87.25 226.109 87.9688 226.109 88.0312C226.109 89.1562 224.188 89.7188 220.344 89.7188C216.531 89.7188 213.531 89.5781 211.344 89.2969C209.188 88.9844 208.109 88.2812 208.109 87.1875ZM330.875 34.7812V36.2344C330.875 38.7969 330.109 40.0781 328.578 40.0781C328.141 40.0781 327.125 39.0156 325.531 36.8906C323.969 34.7344 322.375 33.2031 320.75 32.2969C319.156 31.3906 317.078 30.9375 314.516 30.9375C311.984 30.9375 310.359 31.2188 309.641 31.7812C308.953 32.3438 308.453 33.4844 308.141 35.2031C307.859 36.9219 307.719 44.375 307.719 57.5625C307.719 70.75 307.938 78.3281 308.375 80.2969C308.844 82.2656 310.047 83.9375 311.984 85.3125C313.922 86.6875 314.891 87.8281 314.891 88.7344C314.891 89.6094 313.422 90.0469 310.484 90.0469L308.891 90L305.797 89.9531C304.734 89.9219 303.703 89.9062 302.703 89.9062L298.156 89.8594C294.188 89.8594 291.656 89.7656 290.562 89.5781C289.5 89.3594 288.969 88.7188 288.969 87.6562C288.969 87.125 289.969 86.2188 291.969 84.9375C294 83.6562 295.266 81.9688 295.766 79.875C296.297 77.75 296.562 69.8438 296.562 56.1562C296.562 42.4688 296.375 34.9531 296 33.6094C295.5 31.8594 293.75 30.9844 290.75 30.9844C287.781 30.9844 285.484 31.4687 283.859 32.4375C282.234 33.375 280.672 34.9688 279.172 37.2188C277.672 39.4688 276.297 40.5938 275.047 40.5938C274.109 40.5938 273.641 39.7344 273.641 38.0156V36.6094C273.641 29.8906 274.219 26.125 275.375 25.3125C275.812 25 285.047 24.8438 303.078 24.8438L325.391 24.75C327.734 24.75 329.234 25.3594 329.891 26.5781C330.547 27.7969 330.875 30.5312 330.875 34.7812ZM368.141 62.2031V61.9219C368.141 58.9844 365.625 51.6406 360.594 39.8906C359.719 37.8594 359.266 36.8438 359.234 36.8438L357.875 39.9844C352.688 52.0781 350.094 59.4219 350.094 62.0156C350.094 62.4531 350.359 62.6875 350.891 62.7188C351.453 62.75 351.875 62.7656 352.156 62.7656L355.812 62.8594H359.141L359.469 62.8125C365.25 62.8125 368.141 62.6094 368.141 62.2031ZM329.047 87.1875C329.047 86.4062 329.938 85.5 331.719 84.4688C333.5 83.4375 334.812 82.125 335.656 80.5312C336.5 78.9375 337.688 76.0625 339.219 71.9062C340.75 67.7188 342.828 62.4531 345.453 56.1094C348.109 49.7656 350.203 44.0781 351.734 39.0469C353.297 33.9844 354.359 30.7813 354.922 29.4375C356.203 26.375 358.016 24.8438 360.359 24.8438H361.672C362.266 24.8438 363 25.1719 363.875 25.8281C365.656 27.1719 367.516 30.0469 369.453 34.4531C370.109 35.9531 371.094 38.5312 372.406 42.1875C373.719 45.8125 376.344 52.9219 380.281 63.5156C384.219 74.1094 386.422 79.875 386.891 80.8125C387.672 82.4375 389 83.75 390.875 84.75C392.75 85.7188 393.688 86.5 393.688 87.0938C393.688 88.4062 392.906 89.2188 391.344 89.5312C390.281 89.75 387.594 89.8594 383.281 89.8594L380.562 89.9062C374.781 89.9062 371.891 89.125 371.891 87.5625C371.891 87.2812 372.25 86.6094 372.969 85.5469C373.719 84.4844 374.094 83.1406 374.094 81.5156C374.094 79.8906 373.5 77.5625 372.312 74.5312C371.156 71.5 370.172 69.625 369.359 68.9062C368.578 68.1875 365.188 67.8281 359.188 67.8281C353.188 67.8281 349.688 68.1562 348.688 68.8125C347.688 69.4688 346.609 71.2344 345.453 74.1094C344.297 76.9844 343.719 79.3281 343.719 81.1406C343.719 82.9219 344.266 84.5 345.359 85.875C346.484 87.25 347.047 87.9688 347.047 88.0312C347.047 89.1562 345.125 89.7188 341.281 89.7188C337.469 89.7188 334.469 89.5781 332.281 89.2969C330.125 88.9844 329.047 88.2812 329.047 87.1875ZM431.047 90.0938H429.641L428.234 90.0469H421.25C410.156 90.0469 404.172 89.9688 403.297 89.8125C401.672 89.5312 400.859 88.8438 400.859 87.75C400.859 87.2812 401.703 86.4531 403.391 85.2656C405.109 84.0781 406.219 82.375 406.719 80.1562C407.25 77.9062 407.516 69.6875 407.516 55.5C407.516 41.3125 407.328 33.6094 406.953 32.3906C406.609 31.1406 405.703 30.2031 404.234 29.5781C401.922 28.5781 400.766 27.5156 400.766 26.3906C400.766 25.2656 402.516 24.7031 406.016 24.7031H408.828L410.188 24.75L414.406 24.7969C421.969 24.7969 425.75 25.3594 425.75 26.4844C425.75 26.8594 424.641 28.125 422.422 30.2812C421.172 31.5 420.266 33.5938 419.703 36.5625C419.172 39.5 418.906 47.3594 418.906 60.1406C418.906 72.9219 419.094 79.9062 419.469 81.0938C419.875 82.2812 420.797 83.1094 422.234 83.5781C423.109 83.8594 424.828 84 427.391 84C432.922 84 437.062 83.2812 439.812 81.8438C441.375 81.0312 443.062 79.3594 444.875 76.8281C446.688 74.2969 448.094 73.0312 449.094 73.0312C450.125 73.0312 450.641 73.6875 450.641 75V76.2188C450.641 83.0938 449.797 87.2969 448.109 88.8281C447.172 89.6719 441.484 90.0938 431.047 90.0938ZM601.812 60.6094C599.312 60.6094 598.062 64.1875 598.062 71.3438C598.062 75.0938 598.344 78.0156 598.906 80.1094C599.469 82.1719 599.938 83.5312 600.312 84.1875L601.156 85.3125C601.906 86.3438 602.281 87 602.281 87.2812C602.281 88.3438 601.5 89.0625 599.938 89.4375C598.375 89.8125 594.672 90 588.828 90C582.984 90 580.062 89.3906 580.062 88.1719C580.062 87.3594 580.969 86.3281 582.781 85.0781C584.594 83.8281 585.703 81.9844 586.109 79.5469C586.547 77.0781 586.766 69.7031 586.766 57.4219C586.766 45.1406 586.516 37.8125 586.016 35.4375C585.547 33.0312 584.719 31.2188 583.531 30L582.406 28.9688C581.094 27.7813 580.438 27.0781 580.438 26.8594C580.438 25.2344 583.375 24.4219 589.25 24.4219L591.359 24.4688H593.562C599.688 24.4688 602.75 25.125 602.75 26.4375C602.75 27.0625 602.25 28 601.25 29.25C600.281 30.5 599.688 31.5469 599.469 32.3906C598.656 35.3594 598.25 40.8594 598.25 48.8906C598.25 52.2031 598.875 53.8594 600.125 53.8594C600.625 53.8594 601.547 53.3281 602.891 52.2656C605.953 49.8594 609.562 46.1562 613.719 41.1562C617.875 36.125 619.953 32.6406 619.953 30.7031L619.859 29.4375L619.578 28.2656L619.344 27.1406C619.344 26.1406 619.922 25.4844 621.078 25.1719C622.234 24.8594 624.609 24.7031 628.203 24.7031C633.703 24.7031 636.453 25.4844 636.453 27.0469C636.453 27.4219 634.859 28.75 631.672 31.0312C628.516 33.2812 625.531 35.9062 622.719 38.9062C615.938 46.125 612.547 50.875 612.547 53.1562C612.547 54.4062 617.641 61.6719 627.828 74.9531C630.359 78.2344 633.062 81.125 635.938 83.625C638.812 86.0938 640.25 87.5156 640.25 87.8906C640.25 89.3281 637.312 90.0469 631.438 90.0469H629.375C626.156 90.0469 624.016 89.5625 622.953 88.5938C621.891 87.5938 621.016 86.2031 620.328 84.4219C618.859 80.6094 615.922 75.6875 611.516 69.6562C607.109 63.625 603.875 60.6094 601.812 60.6094Z" fill="#F86348"/>
<path d="M475.558 22.0726C468.419 24.0726 469.915 41.0342 465.456 45.1243C461.685 40.6772 463.393 32.3954 463.476 27.0656C463.493 25.9623 462.469 25.1318 461.505 25.6676C452.571 30.6304 459.683 63.2454 459.683 63.2454C461.172 73.5726 467.635 86.4921 478.56 91.6178C489.484 96.7434 506.528 93.1581 513.08 82.6608V69.0879C510.824 69.3251 508.662 71.6257 507.408 76.2796C504.594 86.7898 493.424 87.3205 484.693 86.1167C475.962 84.913 469.251 74.8429 469.785 67.1285C470.334 59.4011 478.454 52.9941 487.132 51.622C498.988 50.8638 505.306 56.6147 508.205 56.9045C510.719 57.1559 509.954 52.7284 508.266 50.8477C503.022 45.0058 490.18 44.6096 485.66 43.83C489.297 38.6914 505.743 28.8477 499.637 26.0727C492.948 25.0727 481.798 38.0727 475.558 43.83C472.917 41.6943 484.116 20.61 475.558 22.0726Z" fill="#FB320E" stroke="#FB320E"/>
<path d="M494.319 81.3664C479.902 87.4369 468.458 68.5522 480.248 59.6859C492.053 50.8324 509.154 62.637 502.978 74.8946C498.937 64.0608 483.365 75.1923 494.319 81.3664Z" fill="#FB320E" stroke="#FB320E"/>
<path d="M551.384 22.0726C558.523 24.0726 557.026 41.0342 561.486 45.1243C565.257 40.6772 563.548 32.3954 563.466 27.0656C563.448 25.9623 564.472 25.1318 565.437 25.6676C574.371 30.6304 567.258 63.2454 567.258 63.2454C565.77 73.5726 559.306 86.4921 548.382 91.6178C537.457 96.7434 520.414 93.1581 513.862 82.6608V69.0879C516.118 69.3251 518.28 71.6257 519.534 76.2796C522.348 86.7898 533.518 87.3205 542.249 86.1167C550.98 84.913 557.69 74.8429 557.156 67.1285C556.608 59.4011 548.488 52.9941 539.81 51.622C527.954 50.8638 521.635 56.6147 518.737 56.9045C516.222 57.1559 516.988 52.7284 518.676 50.8477C523.92 45.0058 536.762 44.6096 541.282 43.83C537.645 38.6914 521.199 28.8477 527.304 26.0727C533.994 25.0727 545.143 38.0727 551.384 43.83C554.025 41.6943 542.826 20.61 551.384 22.0726Z" fill="#FB320E" stroke="#FB320E"/>
<path d="M532.623 81.3664C547.04 87.4369 558.484 68.5522 546.693 59.6859C534.889 50.8324 517.787 62.637 523.964 74.8946C528.005 64.0608 543.576 75.1923 532.623 81.3664Z" fill="#FB320E" stroke="#FB320E"/>
</svg>
